savate-regular.ufo
<glyph name="exclam" format="1">
  <advance width="330"/>
  <unicode hex="0021"/>
  <outline>
    <contour>
      <point x="212" y="424"/>
      <point x="248" y="480"/>
      <point x="248" y="600" type="curve" smooth="yes"/>
      <point x="248" y="660"/>
      <point x="235" y="740"/>
      <point x="166" y="740" type="curve"/>
      <point x="96" y="740"/>
      <point x="82" y="662"/>
      <point x="82" y="600" type="curve" smooth="yes"/>
      <point x="82" y="478"/>
      <point x="114" y="423"/>
      <point x="127" y="298" type="curve" smooth="yes"/>
      <point x="130" y="271"/>
      <point x="132" y="233"/>
      <point x="126" y="186" type="curve"/>
      <point x="200" y="186" type="line"/>
      <point x="194" y="234"/>
      <point x="196" y="270"/>
      <point x="199" y="298" type="curve" smooth="yes"/>
    </contour>
    <contour>
      <point x="233" y="46" type="curve" smooth="yes"/>
      <point x="233" y="89"/>
      <point x="208" y="106"/>
      <point x="166" y="106" type="curve" smooth="yes"/>
      <point x="119" y="106"/>
      <point x="95" y="88"/>
      <point x="95" y="46" type="curve" smooth="yes"/>
      <point x="95" y="8"/>
      <point x="120" y="-10"/>
      <point x="166" y="-10" type="curve" smooth="yes"/>
      <point x="207" y="-10"/>
      <point x="233" y="8"/>
    </contour>
  </outline>
</glyph>
<glyph name="numbersign" format="1">
  <advance width="530"/>
  <unicode hex="0023"/>
  <outline>
    <contour>
      <point x="241" y="600" type="line"/>
      <point x="181" y="600" type="line"/>
      <point x="68" y="-50" type="line"/>
      <point x="128" y="-50" type="line"/>
    </contour>
    <contour>
      <point x="458" y="600" type="line"/>
      <point x="398" y="600" type="line"/>
      <point x="282" y="-50" type="line"/>
      <point x="345" y="-50" type="line"/>
    </contour>
    <contour>
      <point x="437" y="77" type="line"/>
      <point x="457" y="201" type="line"/>
      <point x="52" y="201" type="line"/>
      <point x="25" y="77" type="line"/>
    </contour>
    <contour>
      <point x="477" y="343" type="line"/>
      <point x="505" y="491" type="line"/>
      <point x="97" y="491" type="line"/>
      <point x="69" y="343" type="line"/>
    </contour>
  </outline>
</glyph>
<glyph name="parenleft" format="1">
  <advance width="330"/>
  <unicode hex="0028"/>
  <outline>
    <contour>
      <point x="238" y="-9" type="line"/>
      <point x="134" y="44"/>
      <point x="95" y="141"/>
      <point x="95" y="271" type="curve" smooth="yes"/>
      <point x="96" y="439"/>
      <point x="144" y="566"/>
      <point x="253" y="622" type="curve"/>
      <point x="272" y="810" type="line"/>
      <point x="125" y="756"/>
      <point x="40" y="583"/>
      <point x="40" y="269" type="curve" smooth="yes"/>
      <point x="40" y="6"/>
      <point x="118" y="-158"/>
      <point x="265" y="-210" type="curve"/>
    </contour>
  </outline>
</glyph>
<glyph name="parenright" format="1">
  <advance width="330"/>
  <unicode hex="0029"/>
  <outline>
    <contour>
      <point x="142" y="-9" type="curve"/>
      <point x="115" y="-210" type="line"/>
      <point x="262" y="-158"/>
      <point x="340" y="6"/>
      <point x="340" y="269" type="curve" smooth="yes"/>
      <point x="340" y="583"/>
      <point x="255" y="756"/>
      <point x="108" y="810" type="curve"/>
      <point x="127" y="622" type="line"/>
      <point x="236" y="566"/>
      <point x="284" y="439"/>
      <point x="285" y="271" type="curve" smooth="yes"/>
      <point x="285" y="141"/>
      <point x="246" y="44"/>
    </contour>
  </outline>
</glyph>
<glyph name="comma" format="1">
  <advance width="280"/>
  <unicode hex="002C"/>
  <outline>
    <contour>
      <point x="44" y="-158" type="line"/>
      <point x="110" y="-104"/>
      <point x="132" y="41"/>
      <point x="95" y="125" type="curve"/>
      <point x="221" y="125" type="line"/>
      <point x="240" y="8"/>
      <point x="170" y="-140"/>
      <point x="64" y="-172" type="curve"/>
    </contour>
  </outline>
</glyph>
<glyph name="hyphen" format="1">
  <advance width="330"/>
  <unicode hex="002D"/>
  <outline>
    <contour>
      <point x="305" y="256" type="line"/>
      <point x="305" y="330" type="line"/>
      <point x="35" y="330" type="line"/>
      <point x="35" y="256" type="line"/>
    </contour>
  </outline>
</glyph>
<glyph name="period" format="1">
  <advance width="330"/>
  <unicode hex="002E"/>
  <outline>
    <contour>
      <point x="251.0" y="66.0" type="curve" smooth="yes"/>
      <point x="251.0" y="119.0"/>
      <point x="220.0" y="140.0"/>
      <point x="168.0" y="140.0" type="curve" smooth="yes"/>
      <point x="109.0" y="140.0"/>
      <point x="79.0" y="118.0"/>
      <point x="79.0" y="66.0" type="curve" smooth="yes"/>
      <point x="79.0" y="18.0"/>
      <point x="110.0" y="-5.0"/>
      <point x="168.0" y="-5.0" type="curve" smooth="yes"/>
      <point x="219.0" y="-5.0"/>
      <point x="251.0" y="18.0"/>
    </contour>
  </outline>
</glyph>
<glyph name="one" format="1">
  <advance width="430"/>
  <unicode hex="0031"/>
  <outline>
    <contour>
      <point x="70" y="452" type="line"/>
      <point x="123" y="452"/>
      <point x="225" y="492"/>
      <point x="250" y="537" type="curve"/>
      <point x="250" y="0" type="line"/>
      <point x="320" y="0" type="line"/>
      <point x="320" y="730" type="line"/>
      <point x="222" y="730" type="line"/>
      <point x="212" y="677"/>
      <point x="113" y="633"/>
      <point x="70" y="633" type="curve"/>
    </contour>
  </outline>
</glyph>
<glyph name="three" format="1">
  <advance width="630"/>
  <unicode hex="0033"/>
  <outline>
    <contour>
      <point x="309" y="-10" type="curve" smooth="yes"/>
      <point x="462" y="-10"/>
      <point x="560" y="60"/>
      <point x="560" y="231" type="curve" smooth="yes"/>
      <point x="560" y="368"/>
      <point x="492" y="434"/>
      <point x="358" y="444" type="curve"/>
      <point x="542" y="680" type="line"/>
      <point x="540" y="730" type="line"/>
      <point x="118" y="730" type="line"/>
      <point x="118" y="565" type="line"/>
      <point x="416" y="565" type="line"/>
      <point x="386" y="579" type="line"/>
      <point x="174" y="317" type="line" smooth="yes"/>
      <point x="250" y="325" type="line" smooth="yes"/>
      <point x="431" y="344"/>
      <point x="497" y="295"/>
      <point x="499" y="234" type="curve" smooth="yes"/>
      <point x="501" y="165"/>
      <point x="440" y="127"/>
      <point x="321" y="127" type="curve" smooth="yes"/>
      <point x="254" y="127"/>
      <point x="172" y="147"/>
      <point x="134" y="185" type="curve"/>
      <point x="85" y="93" type="line"/>
      <point x="134" y="27"/>
      <point x="220" y="-10"/>
    </contour>
  </outline>
</glyph>
<glyph name="five" format="1">
  <advance width="630"/>
  <unicode hex="0035"/>
  <outline>
    <contour>
      <point x="322" y="-10" type="curve" smooth="yes"/>
      <point x="474" y="-10"/>
      <point x="570" y="52"/>
      <point x="570" y="228" type="curve" smooth="yes"/>
      <point x="570" y="383"/>
      <point x="484" y="455"/>
      <point x="351" y="455" type="curve" smooth="yes"/>
      <point x="266" y="455"/>
      <point x="196" y="427"/>
      <point x="174" y="393" type="curve"/>
      <point x="205" y="566" type="line"/>
      <point x="521" y="566" type="line"/>
      <point x="516" y="730" type="line"/>
      <point x="163" y="730" type="line"/>
      <point x="93" y="348" type="line"/>
      <point x="175" y="279" type="line"/>
      <point x="204" y="323"/>
      <point x="269" y="336"/>
      <point x="338" y="336" type="curve" smooth="yes"/>
      <point x="452" y="336"/>
      <point x="508" y="290"/>
      <point x="509" y="230" type="curve" smooth="yes"/>
      <point x="510" y="162"/>
      <point x="450" y="117"/>
      <point x="323" y="117" type="curve" smooth="yes"/>
      <point x="222" y="117"/>
      <point x="148" y="167"/>
      <point x="125" y="208" type="curve"/>
      <point x="60" y="148" type="line"/>
      <point x="100" y="47"/>
      <point x="201" y="-10"/>
    </contour>
  </outline>
</glyph>
<glyph name="greater" format="1">
  <advance width="530"/>
  <unicode hex="003E"/>
  <outline>
    <contour>
      <point x="470" y="251" type="line"/>
      <point x="470" y="349" type="line"/>
      <point x="60" y="560" type="line"/>
      <point x="60" y="420" type="line"/>
      <point x="415" y="301" type="line"/>
      <point x="60" y="204" type="line"/>
      <point x="60" y="80" type="line"/>
    </contour>
  </outline>
</glyph>
<glyph name="at" format="1">
  <advance width="830"/>
  <unicode hex="0040"/>
  <outline>
    <contour>
      <point x="593" y="96" type="curve"/>
      <point x="554" y="96"/>
      <point x="538" y="117"/>
      <point x="545" y="150" type="curve"/>
      <point x="484" y="135" type="line"/>
      <point x="485" y="39"/>
      <point x="523" y="13"/>
      <point x="589" y="13" type="curve"/>
      <point x="665" y="13"/>
      <point x="795" y="104"/>
      <point x="795" y="364" type="curve" smooth="yes"/>
      <point x="795" y="607"/>
      <point x="668" y="720"/>
      <point x="444" y="720" type="curve" smooth="yes"/>
      <point x="221" y="720"/>
      <point x="30" y="516"/>
      <point x="30" y="224" type="curve" smooth="yes"/>
      <point x="30" y="-21"/>
      <point x="137" y="-200"/>
      <point x="412" y="-200" type="curve" smooth="yes"/>
      <point x="499" y="-200"/>
      <point x="581" y="-162"/>
      <point x="632" y="-103" type="curve"/>
      <point x="602" y="-38" type="line"/>
      <point x="544" y="-70"/>
      <point x="476" y="-87"/>
      <point x="403" y="-87" type="curve"/>
      <point x="177" y="-87"/>
      <point x="92" y="31"/>
      <point x="92" y="224" type="curve" smooth="yes"/>
      <point x="92" y="451"/>
      <point x="245" y="598"/>
      <point x="436" y="598" type="curve" smooth="yes"/>
      <point x="651" y="598"/>
      <point x="733" y="496"/>
      <point x="733" y="328" type="curve" smooth="yes"/>
      <point x="733" y="211"/>
      <point x="677" y="96"/>
    </contour>
    <contour>
      <point x="545" y="150" type="line" name="_p_cornerRadius:73.0"/>
      <point x="607" y="433" type="line" smooth="yes"/>
      <point x="534" y="372" type="line" smooth="yes"/>
      <point x="484" y="135" type="line"/>
    </contour>
    <contour>
      <point x="607" y="433" type="line"/>
      <point x="573" y="470"/>
      <point x="501" y="500"/>
      <point x="423" y="500" type="curve" smooth="yes"/>
      <point x="293" y="500"/>
      <point x="184" y="373"/>
      <point x="184" y="192" type="curve"/>
      <point x="184" y="74"/>
      <point x="244" y="11"/>
      <point x="325" y="11" type="curve" smooth="yes"/>
      <point x="414" y="11"/>
      <point x="484" y="50"/>
      <point x="506" y="115" type="curve"/>
      <point x="496" y="167" type="line"/>
      <point x="469" y="127"/>
      <point x="409" y="111"/>
      <point x="348" y="112" type="curve" smooth="yes"/>
      <point x="285" y="113"/>
      <point x="239" y="156"/>
      <point x="241" y="212" type="curve" smooth="yes"/>
      <point x="245" y="300"/>
      <point x="309" y="364"/>
      <point x="407" y="364" type="curve" smooth="yes"/>
      <point x="463" y="364"/>
      <point x="519" y="345"/>
      <point x="542" y="319" type="curve"/>
    </contour>
  </outline>
</glyph>
<glyph name="B" format="1">
  <advance width="680"/>
  <unicode hex="0042"/>
  <outline>
    <contour>
      <point x="84" y="0" type="line"/>
      <point x="363" y="0" type="line" smooth="yes"/>
      <point x="518" y="0"/>
      <point x="600" y="85"/>
      <point x="600" y="198" type="curve" smooth="yes"/>
      <point x="600" y="293"/>
      <point x="575" y="341"/>
      <point x="504" y="366" type="curve"/>
      <point x="558" y="388"/>
      <point x="584" y="426"/>
      <point x="584" y="539" type="curve" smooth="yes"/>
      <point x="584" y="648"/>
      <point x="506" y="730"/>
      <point x="344" y="730" type="curve" smooth="yes"/>
      <point x="84" y="730" type="line"/>
    </contour>
    <contour>
      <point x="156" y="160" type="line"/>
      <point x="156" y="329" type="line"/>
      <point x="394" y="329" type="line" smooth="yes"/>
      <point x="494" y="329"/>
      <point x="525" y="296"/>
      <point x="525" y="249" type="curve" smooth="yes"/>
      <point x="525" y="202"/>
      <point x="486" y="160"/>
      <point x="397" y="160" type="curve" smooth="yes"/>
    </contour>
    <contour>
      <point x="156" y="401" type="line"/>
      <point x="156" y="570" type="line"/>
      <point x="377" y="570" type="line" smooth="yes"/>
      <point x="483" y="570"/>
      <point x="512" y="528"/>
      <point x="512" y="487" type="curve" smooth="yes"/>
      <point x="512" y="439"/>
      <point x="491" y="401"/>
      <point x="397" y="401" type="curve" smooth="yes"/>
    </contour>
  </outline>
</glyph>
<glyph name="E" format="1">
  <advance width="630"/>
  <unicode hex="0045"/>
  <outline>
    <contour>
      <point x="90" y="0" type="line"/>
      <point x="540" y="0" type="line"/>
      <point x="540" y="131" type="line"/>
      <point x="161" y="131" type="line"/>
      <point x="161" y="312" type="line"/>
      <point x="443" y="312" type="line"/>
      <point x="443" y="398" type="line"/>
      <point x="161" y="398" type="line"/>
      <point x="161" y="550" type="line"/>
      <point x="534" y="550" type="line"/>
      <point x="534" y="730" type="line"/>
      <point x="90" y="730" type="line"/>
    </contour>
  </outline>
</glyph>
<glyph name="H" format="1">
  <advance width="780"/>
  <unicode hex="0048"/>
  <outline>
    <contour>
      <point x="196" y="0" type="line"/>
      <point x="196" y="275" type="line"/>
      <point x="584" y="275" type="line"/>
      <point x="584" y="0" type="line"/>
      <point x="655" y="0" type="line"/>
      <point x="655" y="730" type="line"/>
      <point x="584" y="730" type="line"/>
      <point x="584" y="450" type="line"/>
      <point x="196" y="450" type="line"/>
      <point x="196" y="730" type="line"/>
      <point x="125" y="730" type="line"/>
      <point x="125" y="0" type="line"/>
    </contour>
  </outline>
</glyph>
<glyph name="O" format="1">
  <advance width="730"/>
  <unicode hex="004F"/>
  <outline>
    <contour>
      <point x="365" y="129" type="curve"/>
      <point x="238" y="129"/>
      <point x="129" y="185"/>
      <point x="130" y="351" type="curve" smooth="yes"/>
      <point x="131" y="464"/>
      <point x="210" y="544"/>
      <point x="365" y="544" type="curve"/>
      <point x="519" y="544"/>
      <point x="599" y="464"/>
      <point x="601" y="351" type="curve" smooth="yes"/>
      <point x="602" y="184"/>
      <point x="494" y="129"/>
    </contour>
    <contour>
      <point x="365" y="-10" type="curve"/>
      <point x="538" y="-10"/>
      <point x="662" y="99"/>
      <point x="662" y="351" type="curve" smooth="yes"/>
      <point x="662" y="632"/>
      <point x="541" y="740"/>
      <point x="365" y="740" type="curve"/>
      <point x="189" y="740"/>
      <point x="68" y="632"/>
      <point x="68" y="351" type="curve" smooth="yes"/>
      <point x="68" y="99"/>
      <point x="193" y="-10"/>
    </contour>
  </outline>
</glyph>
<glyph name="R" format="1">
  <advance width="730"/>
  <unicode hex="0052"/>
  <outline>
    <contour>
      <point x="405" y="292" type="line"/>
      <point x="545" y="295"/>
      <point x="599" y="359"/>
      <point x="599" y="496" type="curve" smooth="yes"/>
      <point x="599" y="650"/>
      <point x="517" y="730"/>
      <point x="345" y="730" type="curve"/>
      <point x="105" y="730" type="line"/>
      <point x="105" y="0" type="line"/>
      <point x="176" y="0" type="line"/>
      <point x="176" y="292" type="line"/>
    </contour>
    <contour>
      <point x="384" y="383" type="curve"/>
      <point x="176" y="383" type="line"/>
      <point x="176" y="569" type="line"/>
      <point x="384" y="569" type="line"/>
      <point x="491" y="569"/>
      <point x="537" y="533"/>
      <point x="538" y="473" type="curve" smooth="yes"/>
      <point x="539" y="418"/>
      <point x="493" y="383"/>
    </contour>
    <contour>
      <point x="478" y="60"/>
      <point x="511" y="-10"/>
      <point x="572" y="-10" type="curve"/>
      <point x="602" y="-10"/>
      <point x="646" y="3"/>
      <point x="657" y="39" type="curve"/>
      <point x="632" y="132" type="line"/>
      <point x="621" y="121"/>
      <point x="602" y="118"/>
      <point x="581" y="118" type="curve" smooth="yes"/>
      <point x="549" y="118"/>
      <point x="534" y="140"/>
      <point x="524" y="198" type="curve" smooth="yes"/>
      <point x="509" y="284"/>
      <point x="449" y="333"/>
      <point x="319" y="335" type="curve"/>
      <point x="159" y="334" type="line"/>
      <point x="159" y="244" type="line"/>
      <point x="351" y="244" type="line"/>
      <point x="410" y="244"/>
      <point x="453" y="216"/>
      <point x="461" y="166" type="curve" smooth="yes"/>
    </contour>
  </outline>
</glyph>
<glyph name="U" format="1">
  <advance width="730"/>
  <unicode hex="0055"/>
  <outline>
    <contour>
      <point x="582.0" y="361.0" type="line"/>
      <point x="582.0" y="308.0"/>
      <point x="571.0" y="249.0"/>
      <point x="540.0" y="215.0" type="curve" smooth="yes"/>
      <point x="501.0" y="173.0"/>
      <point x="442.0" y="155.0"/>
      <point x="368.0" y="155.0" type="curve" smooth="yes"/>
      <point x="289.0" y="155.0"/>
      <point x="230.0" y="174.0"/>
      <point x="189.0" y="215.0" type="curve" smooth="yes"/>
      <point x="154.0" y="251.0"/>
      <point x="146.0" y="310.0"/>
      <point x="146.0" y="369.0" type="curve"/>
      <point x="146.0" y="730.0" type="line"/>
      <point x="80.0" y="730.0" type="line"/>
      <point x="80.0" y="294.0" type="line"/>
      <point x="80.0" y="82.0"/>
      <point x="198.0" y="-10.0"/>
      <point x="365.0" y="-10.0" type="curve" smooth="yes"/>
      <point x="540.0" y="-10.0"/>
      <point x="650.0" y="83.0"/>
      <point x="650.0" y="296.0" type="curve"/>
      <point x="650.0" y="730.0" type="line"/>
      <point x="582.0" y="730.0" type="line"/>
    </contour>
  </outline>
</glyph>
<glyph name="V" format="1">
  <advance width="730"/>
  <unicode hex="0056"/>
  <outline>
    <contour>
      <point x="293" y="0" type="line"/>
      <point x="416" y="0" type="line"/>
      <point x="710" y="729" type="line"/>
      <point x="560" y="729" type="line"/>
      <point x="316" y="106" type="line"/>
      <point x="338" y="104" type="line"/>
      <point x="98" y="730" type="line"/>
      <point x="20" y="730" type="line"/>
    </contour>
  </outline>
</glyph>
<glyph name="W" format="1">
  <advance width="880"/>
  <unicode hex="0057"/>
  <outline>
    <contour>
      <point x="561" y="0" type="line"/>
      <point x="670" y="0" type="line"/>
      <point x="890" y="729" type="line"/>
      <point x="762" y="729" type="line"/>
      <point x="589" y="126" type="line"/>
      <point x="601" y="126" type="line"/>
      <point x="454" y="599" type="line"/>
      <point x="396" y="599" type="line"/>
      <point x="232" y="123" type="line"/>
      <point x="241" y="123" type="line"/>
      <point x="64" y="730" type="line"/>
      <point x="-10" y="730" type="line"/>
      <point x="201" y="0" type="line"/>
      <point x="314" y="0" type="line"/>
      <point x="456" y="397" type="line"/>
      <point x="438" y="397" type="line"/>
    </contour>
  </outline>
</glyph>
<glyph name="bracketleft" format="1">
  <advance width="330"/>
  <unicode hex="005B"/>
  <outline>
    <contour>
      <point x="60" y="-200" type="line"/>
      <point x="258" y="-200" type="line"/>
      <point x="258" y="-26" type="line"/>
      <point x="130" y="-26" type="line"/>
      <point x="130" y="626" type="line"/>
      <point x="258" y="626" type="line"/>
      <point x="258" y="800" type="line"/>
      <point x="60" y="800" type="line"/>
    </contour>
  </outline>
</glyph>
<glyph name="backslash" format="1">
  <advance width="430"/>
  <unicode hex="005C"/>
  <outline>
    <contour>
      <point x="110" y="800" type="line"/>
      <point x="35" y="800" type="line"/>
      <point x="320" y="-200" type="line"/>
      <point x="395" y="-200" type="line"/>
    </contour>
  </outline>
</glyph>
<glyph name="bracketright" format="1">
  <advance width="330"/>
  <unicode hex="005D"/>
  <outline>
    <contour>
      <point x="320" y="-200" type="line"/>
      <point x="320" y="800" type="line"/>
      <point x="122" y="800" type="line"/>
      <point x="122" y="626" type="line"/>
      <point x="250" y="626" type="line"/>
      <point x="250" y="-26" type="line"/>
      <point x="122" y="-26" type="line"/>
      <point x="122" y="-200" type="line"/>
    </contour>
  </outline>
</glyph>
<glyph name="b" format="1">
  <advance width="530"/>
  <unicode hex="0062"/>
  <outline>
    <contour>
      <point x="277" y="108" type="curve" smooth="yes"/>
      <point x="175" y="108"/>
      <point x="131" y="131"/>
      <point x="94" y="213" type="curve" smooth="yes"/>
      <point x="90" y="220"/>
      <point x="118" y="147"/>
      <point x="120" y="156" type="curve"/>
      <point x="120" y="266" type="line"/>
      <point x="121" y="343"/>
      <point x="164" y="398"/>
      <point x="281" y="398" type="curve" smooth="yes"/>
      <point x="384" y="398"/>
      <point x="435" y="344"/>
      <point x="435" y="266" type="curve"/>
      <point x="436" y="169"/>
      <point x="383" y="108"/>
    </contour>
    <contour>
      <point x="494" y="266" type="curve" smooth="yes"/>
      <point x="494" y="481"/>
      <point x="411" y="561"/>
      <point x="288" y="560" type="curve" smooth="yes"/>
      <point x="208" y="559"/>
      <point x="118" y="522"/>
      <point x="102" y="395" type="curve"/>
      <point x="120" y="387" type="line"/>
      <point x="120" y="780" type="line"/>
      <point x="55" y="780" type="line"/>
      <point x="55" y="0" type="line"/>
      <point x="110" y="0" type="line"/>
      <point x="120" y="125" type="line"/>
      <point x="99" y="130" type="line"/>
      <point x="118" y="55"/>
      <point x="192" y="-10"/>
      <point x="283" y="-10" type="curve" smooth="yes"/>
      <point x="417" y="-10"/>
      <point x="494" y="91"/>
    </contour>
  </outline>
</glyph>
<glyph name="c" format="1">
  <advance width="530"/>
  <unicode hex="0063"/>
  <outline>
    <contour>
      <point x="265" y="-10" type="curve" smooth="yes"/>
      <point x="373" y="-10"/>
      <point x="446" y="34"/>
      <point x="480" y="112" type="curve"/>
      <point x="428" y="183" type="line"/>
      <point x="401" y="130"/>
      <point x="353" y="108"/>
      <point x="270" y="108" type="curve" smooth="yes"/>
      <point x="155" y="108"/>
      <point x="108" y="181"/>
      <point x="109" y="266" type="curve" smooth="yes"/>
      <point x="110" y="352"/>
      <point x="173" y="402"/>
      <point x="270" y="402" type="curve" smooth="yes"/>
      <point x="353" y="402"/>
      <point x="395" y="375"/>
      <point x="424" y="338" type="curve"/>
      <point x="470" y="425" type="line"/>
      <point x="439" y="510"/>
      <point x="376" y="560"/>
      <point x="265" y="560" type="curve" smooth="yes"/>
      <point x="145" y="560"/>
      <point x="50" y="479"/>
      <point x="50" y="271" type="curve" smooth="yes"/>
      <point x="50" y="79"/>
      <point x="138" y="-10"/>
    </contour>
  </outline>
</glyph>
<glyph name="e" format="1">
  <advance width="530"/>
  <unicode hex="0065"/>
  <outline>
    <contour>
      <point x="104" y="269" type="curve"/>
      <point x="104" y="362"/>
      <point x="181" y="418"/>
      <point x="265" y="418" type="curve" smooth="yes"/>
      <point x="367" y="418"/>
      <point x="430" y="358"/>
      <point x="430" y="297" type="curve"/>
      <point x="72" y="297" type="line"/>
      <point x="72" y="232" type="line"/>
      <point x="495" y="232" type="line"/>
      <point x="495" y="460"/>
      <point x="406" y="560"/>
      <point x="270" y="560" type="curve" smooth="yes"/>
      <point x="150" y="560"/>
      <point x="45" y="480"/>
      <point x="45" y="267" type="curve" smooth="yes"/>
      <point x="45" y="105"/>
      <point x="122" y="-10"/>
      <point x="272" y="-10" type="curve" smooth="yes"/>
      <point x="369" y="-10"/>
      <point x="443" y="50"/>
      <point x="476" y="126" type="curve"/>
      <point x="429" y="161" type="line"/>
      <point x="400" y="121"/>
      <point x="358" y="100"/>
      <point x="270" y="101" type="curve" smooth="yes"/>
      <point x="166" y="102"/>
      <point x="104" y="156"/>
    </contour>
  </outline>
</glyph>
<glyph name="h" format="1">
  <advance width="530"/>
  <unicode hex="0068"/>
  <outline>
    <contour>
      <point x="472" y="0" type="line"/>
      <point x="472" y="304" type="line" smooth="yes"/>
      <point x="472" y="499"/>
      <point x="417" y="560"/>
      <point x="296" y="560" type="curve" smooth="yes"/>
      <point x="191" y="560"/>
      <point x="116" y="500"/>
      <point x="107" y="394" type="curve"/>
      <point x="122" y="387" type="line"/>
      <point x="122" y="780" type="line"/>
      <point x="58" y="780" type="line"/>
      <point x="58" y="0" type="line"/>
      <point x="122" y="0" type="line"/>
      <point x="122" y="332" type="line"/>
      <point x="113" y="257" type="line"/>
      <point x="133" y="351"/>
      <point x="192" y="388"/>
      <point x="279" y="388" type="curve" smooth="yes"/>
      <point x="364" y="388"/>
      <point x="409" y="342"/>
      <point x="409" y="241" type="curve" smooth="yes"/>
      <point x="409" y="0" type="line"/>
    </contour>
  </outline>
</glyph>
<glyph name="j" format="1">
  <advance width="330"/>
  <unicode hex="006A"/>
  <outline>
    <contour>
      <point x="230" y="-67" type="curve" smooth="yes"/>
      <point x="230" y="540" type="line"/>
      <point x="40" y="540" type="line"/>
      <point x="40" y="368" type="line"/>
      <point x="165" y="368" type="line"/>
      <point x="165" y="11" type="line" smooth="yes"/>
      <point x="165" y="-58"/>
      <point x="137" y="-78"/>
      <point x="89" y="-80" type="curve" smooth="yes"/>
      <point x="65" y="-81"/>
      <point x="33" y="-73"/>
      <point x="10" y="-48" type="curve"/>
      <point x="-18" y="-148" type="line"/>
      <point x="1" y="-179"/>
      <point x="42" y="-210"/>
      <point x="108" y="-210" type="curve" smooth="yes"/>
      <point x="186" y="-210"/>
      <point x="230" y="-159"/>
    </contour>
    <contour>
      <point x="235" y="709" type="curve" smooth="yes"/>
      <point x="235" y="767"/>
      <point x="203" y="790"/>
      <point x="149" y="790" type="curve" smooth="yes"/>
      <point x="89" y="790"/>
      <point x="59" y="766"/>
      <point x="59" y="709" type="curve" smooth="yes"/>
      <point x="59" y="652"/>
      <point x="91" y="625"/>
      <point x="149" y="625" type="curve" smooth="yes"/>
      <point x="201" y="625"/>
      <point x="235" y="652"/>
    </contour>
  </outline>
</glyph>
<glyph name="k" format="1">
  <advance width="530"/>
  <unicode hex="006B"/>
  <outline>
    <contour>
      <point x="61" y="0" type="line"/>
      <point x="125" y="0" type="line"/>
      <point x="125" y="780" type="line"/>
      <point x="61" y="780" type="line"/>
    </contour>
    <contour>
      <point x="187" y="309" type="line"/>
      <point x="423" y="0" type="line"/>
      <point x="506" y="0" type="line" smooth="yes"/>
      <point x="223" y="373" type="line"/>
    </contour>
    <contour>
      <point x="307" y="550" type="line"/>
      <point x="84" y="286" type="line"/>
      <point x="84" y="104" type="line"/>
      <point x="487" y="550" type="line"/>
    </contour>
  </outline>
</glyph>
<glyph name="l" format="1">
  <advance width="380"/>
  <unicode hex="006C"/>
  <outline>
    <contour>
      <point x="260" y="-10" type="curve" smooth="yes"/>
      <point x="332" y="-10"/>
      <point x="373" y="20"/>
      <point x="395" y="52" type="curve"/>
      <point x="367" y="161" type="line"/>
      <point x="348" y="141"/>
      <point x="318" y="130"/>
      <point x="278" y="130" type="curve" smooth="yes"/>
      <point x="220" y="130"/>
      <point x="198" y="165"/>
      <point x="198" y="225" type="curve"/>
      <point x="198" y="780" type="line"/>
      <point x="42" y="780" type="line"/>
      <point x="42" y="630" type="line"/>
      <point x="130" y="630" type="line"/>
      <point x="130" y="149" type="line"/>
      <point x="130" y="37"/>
      <point x="172" y="-10"/>
    </contour>
  </outline>
</glyph>
<glyph name="n" format="1">
  <advance width="530"/>
  <unicode hex="006E"/>
  <outline>
    <contour>
      <point x="475" y="0" type="line"/>
      <point x="475" y="303" type="line" smooth="yes"/>
      <point x="475" y="499"/>
      <point x="418" y="560"/>
      <point x="285" y="560" type="curve" smooth="yes"/>
      <point x="187" y="560"/>
      <point x="112" y="499"/>
      <point x="103" y="391" type="curve"/>
      <point x="120" y="387" type="line"/>
      <point x="120" y="550" type="line"/>
      <point x="55" y="550" type="line"/>
      <point x="55" y="0" type="line"/>
      <point x="120" y="0" type="line"/>
      <point x="120" y="332" type="line"/>
      <point x="110" y="256" type="line"/>
      <point x="130" y="351"/>
      <point x="193" y="389"/>
      <point x="280" y="389" type="curve" smooth="yes"/>
      <point x="374" y="389"/>
      <point x="412" y="343"/>
      <point x="412" y="241" type="curve" smooth="yes"/>
      <point x="412" y="0" type="line"/>
    </contour>
  </outline>
</glyph>
<glyph name="o" format="1">
  <advance width="530"/>
  <unicode hex="006F"/>
  <outline>
    <contour>
      <point x="265" y="107" type="curve"/>
      <point x="172" y="107"/>
      <point x="93" y="146"/>
      <point x="94" y="265" type="curve" smooth="yes"/>
      <point x="95" y="345"/>
      <point x="153" y="402"/>
      <point x="265" y="402" type="curve"/>
      <point x="378" y="402"/>
      <point x="435" y="345"/>
      <point x="436" y="265" type="curve" smooth="yes"/>
      <point x="437" y="146"/>
      <point x="358" y="107"/>
    </contour>
    <contour>
      <point x="265" y="-10" type="curve"/>
      <point x="399" y="-10"/>
      <point x="495" y="73"/>
      <point x="495" y="265" type="curve" smooth="yes"/>
      <point x="495" y="478"/>
      <point x="402" y="560"/>
      <point x="265" y="560" type="curve"/>
      <point x="129" y="560"/>
      <point x="35" y="478"/>
      <point x="35" y="265" type="curve" smooth="yes"/>
      <point x="35" y="73"/>
      <point x="132" y="-10"/>
    </contour>
  </outline>
</glyph>
<glyph name="r" format="1">
  <advance width="430"/>
  <unicode hex="0072"/>
  <outline>
    <contour>
      <point x="191" y="285" type="line"/>
      <point x="191" y="355"/>
      <point x="227" y="394"/>
      <point x="276" y="394" type="curve" smooth="yes"/>
      <point x="321" y="394"/>
      <point x="345" y="383"/>
      <point x="357" y="357" type="curve"/>
      <point x="395" y="523" type="line"/>
      <point x="369" y="545"/>
      <point x="346" y="560"/>
      <point x="298" y="560" type="curve" smooth="yes"/>
      <point x="244" y="560"/>
      <point x="172" y="510"/>
      <point x="172" y="403" type="curve"/>
      <point x="188" y="403" type="line"/>
      <point x="188" y="463" type="line"/>
      <point x="150" y="550" type="line"/>
      <point x="65" y="550" type="line"/>
      <point x="65" y="377" type="line"/>
      <point x="125" y="377" type="line"/>
      <point x="125" y="0" type="line"/>
      <point x="191" y="0" type="line"/>
    </contour>
  </outline>
</glyph>
<glyph name="t" format="1">
  <advance width="430"/>
  <unicode hex="0074"/>
  <outline>
    <contour>
      <point x="387" y="54" type="curve"/>
      <point x="360" y="155" type="line"/>
      <point x="344" y="137"/>
      <point x="310" y="123"/>
      <point x="268" y="124" type="curve" smooth="yes"/>
      <point x="219" y="125"/>
      <point x="185" y="150"/>
      <point x="185" y="222" type="curve" smooth="yes"/>
      <point x="185" y="384" type="line"/>
      <point x="335" y="384" type="line"/>
      <point x="335" y="540" type="line"/>
      <point x="185" y="540" type="line"/>
      <point x="185" y="670" type="line"/>
      <point x="120" y="670" type="line"/>
      <point x="120" y="540" type="line"/>
      <point x="41" y="540" type="line"/>
      <point x="41" y="384" type="line"/>
      <point x="120" y="384" type="line"/>
      <point x="120" y="153" type="line" smooth="yes"/>
      <point x="120" y="32"/>
      <point x="177" y="-10"/>
      <point x="255" y="-10" type="curve" smooth="yes"/>
      <point x="312" y="-10"/>
      <point x="369" y="14"/>
    </contour>
  </outline>
</glyph>
<glyph name="v" format="1">
  <advance width="530"/>
  <unicode hex="0076"/>
  <outline>
    <contour>
      <point x="220" y="0" type="line"/>
      <point x="315" y="0" type="line"/>
      <point x="510" y="550" type="line"/>
      <point x="386" y="550" type="line"/>
      <point x="240" y="106" type="line"/>
      <point x="253" y="106" type="line"/>
      <point x="90" y="550" type="line"/>
      <point x="20" y="550" type="line"/>
    </contour>
  </outline>
</glyph>
<glyph name="w" format="1">
  <advance width="780"/>
  <unicode hex="0077"/>
  <outline>
    <contour>
      <point x="486" y="0" type="line"/>
      <point x="572" y="0" type="line"/>
      <point x="740" y="550" type="line"/>
      <point x="620" y="550" type="line"/>
      <point x="494" y="105" type="line"/>
      <point x="511" y="105" type="line"/>
      <point x="394" y="451" type="line"/>
      <point x="339" y="451" type="line"/>
      <point x="225" y="104" type="line"/>
      <point x="243" y="104" type="line"/>
      <point x="113" y="550" type="line"/>
      <point x="40" y="550" type="line"/>
      <point x="207" y="0" type="line"/>
      <point x="300" y="0" type="line"/>
      <point x="398" y="285" type="line"/>
      <point x="386" y="285" type="line"/>
    </contour>
  </outline>
</glyph>
<glyph name="x" format="1">
  <advance width="530"/>
  <unicode hex="0078"/>
  <outline>
    <contour>
      <point x="42" y="550" type="line"/>
      <point x="225" y="262" type="line"/>
      <point x="306" y="262" type="line"/>
      <point x="125" y="550" type="line"/>
    </contour>
    <contour>
      <point x="364" y="550" type="line"/>
      <point x="227" y="314" type="line"/>
      <point x="30" y="0" type="line"/>
      <point x="178" y="0" type="line"/>
      <point x="312" y="239" type="line"/>
      <point x="500" y="550" type="line"/>
    </contour>
    <contour>
      <point x="233" y="288" type="line"/>
      <point x="416" y="0" type="line"/>
      <point x="499" y="0" type="line"/>
      <point x="312" y="288" type="line"/>
    </contour>
  </outline>
</glyph>
<glyph name="bar" format="1">
  <advance width="330"/>
  <unicode hex="007C"/>
  <outline>
    <contour>
      <point x="129" y="800" type="line"/>
      <point x="129" y="-200" type="line"/>
      <point x="201" y="-200" type="line"/>
      <point x="201" y="800" type="line"/>
    </contour>
  </outline>
</glyph>
<glyph name="yen" format="1">
  <advance width="780"/>
  <unicode hex="00A5"/>
  <outline>
    <contour>
      <point x="137" y="266" type="line"/>
      <point x="535" y="266" type="line"/>
      <point x="535" y="347" type="line"/>
      <point x="137" y="347" type="line"/>
    </contour>
    <contour>
      <point x="137" y="126" type="line"/>
      <point x="535" y="126" type="line"/>
      <point x="535" y="207" type="line"/>
      <point x="137" y="207" type="line"/>
    </contour>
    <component base="Y" xOffset="-10"/>
  </outline>
</glyph>
<glyph name="dieresis" format="1">
  <advance width="530"/>
  <unicode hex="00A8"/>
  <outline>
    <contour>
      <point x="240" y="730" type="curve" smooth="yes"/>
      <point x="240" y="778"/>
      <point x="213" y="797"/>
      <point x="166" y="797" type="curve" smooth="yes"/>
      <point x="113" y="797"/>
      <point x="86" y="777"/>
      <point x="86" y="730" type="curve" smooth="yes"/>
      <point x="86" y="687"/>
      <point x="113" y="666"/>
      <point x="166" y="666" type="curve" smooth="yes"/>
      <point x="212" y="666"/>
      <point x="240" y="687"/>
    </contour>
    <contour>
      <point x="450" y="730" type="curve" smooth="yes"/>
      <point x="450" y="778"/>
      <point x="423" y="797"/>
      <point x="376" y="797" type="curve" smooth="yes"/>
      <point x="323" y="797"/>
      <point x="296" y="777"/>
      <point x="296" y="730" type="curve" smooth="yes"/>
      <point x="296" y="687"/>
      <point x="324" y="666"/>
      <point x="376" y="666" type="curve" smooth="yes"/>
      <point x="422" y="666"/>
      <point x="450" y="687"/>
    </contour>
  </outline>
</glyph>
<glyph name="copyright" format="1">
  <advance width="330"/>
  <unicode hex="00A9"/>
  <outline>
    <contour>
      <point x="18" y="576" type="curve"/>
      <point x="19" y="466"/>
      <point x="87" y="417"/>
      <point x="165" y="417" type="curve" smooth="yes"/>
      <point x="250" y="417"/>
      <point x="311" y="467"/>
      <point x="312" y="577" type="curve"/>
      <point x="311" y="687"/>
      <point x="240" y="736"/>
      <point x="162" y="736" type="curve" smooth="yes"/>
      <point x="77" y="736"/>
      <point x="19" y="686"/>
    </contour>
    <contour>
      <point x="46" y="644"/>
      <point x="98" y="692"/>
      <point x="162" y="692" type="curve" smooth="yes"/>
      <point x="229" y="692"/>
      <point x="284" y="643"/>
      <point x="284" y="577" type="curve"/>
      <point x="281" y="483"/>
      <point x="229" y="461"/>
      <point x="165" y="461" type="curve" smooth="yes"/>
      <point x="98" y="461"/>
      <point x="49" y="495"/>
      <point x="46" y="576" type="curve"/>
    </contour>
    <contour>
      <point x="221" y="550" type="line"/>
      <point x="215" y="530"/>
      <point x="193" y="518"/>
      <point x="164" y="518" type="curve" smooth="yes"/>
      <point x="123" y="518"/>
      <point x="105" y="536"/>
      <point x="105" y="569" type="curve" smooth="yes"/>
      <point x="105" y="601"/>
      <point x="125" y="618"/>
      <point x="163" y="618" type="curve" smooth="yes"/>
      <point x="190" y="618"/>
      <point x="208" y="611"/>
      <point x="217" y="600" type="curve"/>
      <point x="234" y="615" type="line"/>
      <point x="224" y="653"/>
      <point x="199" y="665"/>
      <point x="163" y="665" type="curve" smooth="yes"/>
      <point x="120" y="665"/>
      <point x="86" y="641"/>
      <point x="86" y="572" type="curve" smooth="yes"/>
      <point x="86" y="510"/>
      <point x="118" y="484"/>
      <point x="161" y="484" type="curve" smooth="yes"/>
      <point x="203" y="484"/>
      <point x="228" y="503"/>
      <point x="236" y="539" type="curve"/>
    </contour>
  </outline>
</glyph>
<glyph name="logicalnot" format="1">
  <advance width="530"/>
  <unicode hex="00AC"/>
  <outline>
    <contour>
      <point x="460" y="170" type="line"/>
      <point x="460" y="495" type="line"/>
      <point x="70" y="495" type="line"/>
      <point x="70" y="366" type="line"/>
      <point x="383" y="366" type="line"/>
      <point x="383" y="170" type="line"/>
    </contour>
  </outline>
</glyph>
<glyph name="ordmasculine" format="1">
  <advance width="330"/>
  <unicode hex="00BA"/>
  <outline>
    <contour>
      <point x="165" y="437" type="curve"/>
      <point x="104" y="437"/>
      <point x="52" y="463"/>
      <point x="53" y="541" type="curve" smooth="yes"/>
      <point x="54" y="594"/>
      <point x="91" y="632"/>
      <point x="165" y="632" type="curve"/>
      <point x="240" y="632"/>
      <point x="276" y="594"/>
      <point x="277" y="541" type="curve" smooth="yes"/>
      <point x="278" y="463"/>
      <point x="226" y="437"/>
    </contour>
    <contour>
      <point x="165" y="360" type="curve"/>
      <point x="253" y="360"/>
      <point x="318" y="415"/>
      <point x="318" y="541" type="curve" smooth="yes"/>
      <point x="318" y="682"/>
      <point x="255" y="736"/>
      <point x="165" y="736" type="curve"/>
      <point x="75" y="736"/>
      <point x="12" y="682"/>
      <point x="12" y="541" type="curve" smooth="yes"/>
      <point x="12" y="415"/>
      <point x="77" y="360"/>
    </contour>
  </outline>
</glyph>
<glyph name="eth" format="1">
  <advance width="530"/>
  <unicode hex="00F0"/>
  <outline>
    <contour>
      <point x="282" y="587" type="line"/>
      <point x="488" y="668" type="line"/>
      <point x="463" y="730" type="line"/>
      <point x="257" y="649" type="line"/>
    </contour>
    <contour>
      <point x="266" y="-10" type="curve" smooth="yes"/>
      <point x="402" y="-10"/>
      <point x="495" y="74"/>
      <point x="495" y="266" type="curve" smooth="yes"/>
      <point x="495" y="631"/>
      <point x="394" y="757"/>
      <point x="251" y="780" type="curve"/>
      <point x="242" y="703" type="line"/>
      <point x="314" y="695"/>
      <point x="381" y="614"/>
      <point x="409" y="493" type="curve" smooth="yes"/>
      <point x="411" y="486"/>
      <point x="409" y="519"/>
      <point x="411" y="511" type="curve"/>
      <point x="388" y="538"/>
      <point x="328" y="560"/>
      <point x="269" y="560" type="curve" smooth="yes"/>
      <point x="127" y="560"/>
      <point x="35" y="478"/>
      <point x="35" y="264" type="curve" smooth="yes"/>
      <point x="35" y="71"/>
      <point x="142" y="-10"/>
    </contour>
    <contour>
      <point x="266" y="107" type="curve" smooth="yes"/>
      <point x="162" y="107"/>
      <point x="93" y="157"/>
      <point x="94" y="266" type="curve" smooth="yes"/>
      <point x="95" y="343"/>
      <point x="151" y="402"/>
      <point x="265" y="402" type="curve" smooth="yes"/>
      <point x="379" y="402"/>
      <point x="435" y="344"/>
      <point x="436" y="266" type="curve" smooth="yes"/>
      <point x="438" y="148"/>
      <point x="359" y="107"/>
    </contour>
  </outline>
</glyph>
<glyph name="oslash" format="1">
  <advance width="530"/>
  <unicode hex="00F8"/>
  <outline>
    <contour>
      <point x="407" y="593" type="line"/>
      <point x="65" y="-47" type="line"/>
      <point x="143" y="-60" type="line"/>
      <point x="485" y="580" type="line"/>
    </contour>
    <component base="o" xOffset="-10"/>
  </outline>
</glyph>
<glyph name="thorn" format="1">
  <advance width="530"/>
  <unicode hex="00FE"/>
  <outline>
    <contour>
      <point x="273" y="108" type="curve" smooth="yes"/>
      <point x="207" y="109"/>
      <point x="145" y="137"/>
      <point x="120" y="189" type="curve"/>
      <point x="120" y="286" type="line"/>
      <point x="120" y="355"/>
      <point x="165" y="404"/>
      <point x="276" y="404" type="curve" smooth="yes"/>
      <point x="371" y="404"/>
      <point x="431" y="350"/>
      <point x="431" y="266" type="curve"/>
      <point x="432" y="154"/>
      <point x="372" y="106"/>
    </contour>
    <contour>
      <point x="491" y="258" type="curve" smooth="yes"/>
      <point x="491" y="486"/>
      <point x="403" y="560"/>
      <point x="283" y="560" type="curve" smooth="yes"/>
      <point x="204" y="560"/>
      <point x="114" y="514"/>
      <point x="102" y="394" type="curve"/>
      <point x="120" y="388" type="line"/>
      <point x="120" y="730" type="line"/>
      <point x="55" y="730" type="line"/>
      <point x="55" y="-200" type="line"/>
      <point x="120" y="-200" type="line"/>
      <point x="120" y="168" type="line"/>
      <point x="83" y="116" type="line"/>
      <point x="133" y="29"/>
      <point x="203" y="-10"/>
      <point x="277" y="-10" type="curve" smooth="yes"/>
      <point x="399" y="-10"/>
      <point x="491" y="77"/>
    </contour>
  </outline>
</glyph>
<glyph name="dcroat" format="1">
  <advance width="530"/>
  <unicode hex="0111"/>
  <outline>
    <contour>
      <point x="557" y="621" type="line"/>
      <point x="557" y="695" type="line"/>
      <point x="287" y="695" type="line"/>
      <point x="287" y="621" type="line"/>
    </contour>
    <component base="d" xOffset="-10"/>
  </outline>
</glyph>
<glyph name="lslash" format="1">
  <advance width="380"/>
  <unicode hex="0142"/>
  <outline>
    <contour>
      <point x="338" y="419" type="line"/>
      <point x="338" y="550" type="line"/>
      <point x="11" y="401" type="line"/>
      <point x="11" y="270" type="line"/>
    </contour>
    <component base="l" xOffset="-10"/>
  </outline>
</glyph>
<glyph name="Eng" format="1">
  <advance width="780"/>
  <unicode hex="014A"/>
  <outline>
    <contour>
      <point x="425" y="-211" type="line"/>
      <point x="607" y="-231"/>
      <point x="675" y="-144"/>
      <point x="675" y="25" type="curve"/>
      <point x="515" y="23" type="line"/>
      <point x="577" y="-78"/>
      <point x="507" y="-142"/>
      <point x="441" y="-132" type="curve"/>
    </contour>
    <component base="N" xOffset="-10"/>
  </outline>
</glyph>
<glyph name="tcaron" format="1">
  <advance width="430"/>
  <unicode hex="0165"/>
  <outline>
    <contour>
      <point x="300" y="587" type="curve"/>
      <point x="320" y="573" type="line"/>
      <point x="412" y="601"/>
      <point x="471" y="710"/>
      <point x="457" y="800" type="curve"/>
      <point x="333" y="800" type="line"/>
      <point x="360" y="737"/>
      <point x="346" y="624"/>
    </contour>
    <component base="t" xOffset="-10"/>
  </outline>
</glyph>
<glyph name="Schwa" format="1">
  <advance width="730"/>
  <unicode hex="018F"/>
  <outline>
    <contour>
      <point x="602" y="374" type="curve"/>
      <point x="602" y="221"/>
      <point x="491" y="129"/>
      <point x="372" y="129" type="curve" smooth="yes"/>
      <point x="224" y="129"/>
      <point x="134" y="223"/>
      <point x="134" y="315" type="curve"/>
      <point x="625" y="315" type="line"/>
      <point x="625" y="396" type="line"/>
      <point x="68" y="396" type="line"/>
      <point x="58" y="115"/>
      <point x="174" y="-10"/>
      <point x="364" y="-10" type="curve" smooth="yes"/>
      <point x="530" y="-10"/>
      <point x="661" y="77"/>
      <point x="661" y="375" type="curve" smooth="yes"/>
      <point x="661" y="599"/>
      <point x="559" y="740"/>
      <point x="362" y="740" type="curve" smooth="yes"/>
      <point x="224" y="740"/>
      <point x="123" y="657"/>
      <point x="96" y="551" type="curve"/>
      <point x="158" y="485" type="line"/>
      <point x="193" y="546"/>
      <point x="270" y="585"/>
      <point x="364" y="582" type="curve" smooth="yes"/>
      <point x="522" y="577"/>
      <point x="602" y="504"/>
    </contour>
  </outline>
</glyph>
<glyph name="florin" format="1">
  <advance width="480"/>
  <unicode hex="0192"/>
  <outline>
    <contour>
      <point x="279" y="498" type="line"/>
      <point x="279" y="591"/>
      <point x="330" y="644"/>
      <point x="399" y="644" type="curve" smooth="yes"/>
      <point x="437" y="644"/>
      <point x="469" y="632"/>
      <point x="480" y="617" type="curve"/>
      <point x="547" y="748" type="line"/>
      <point x="531" y="773"/>
      <point x="492" y="790"/>
      <point x="427" y="790" type="curve" smooth="yes"/>
      <point x="325" y="790"/>
      <point x="211" y="705"/>
      <point x="211" y="498" type="curve"/>
    </contour>
    <contour>
      <point x="379" y="364" type="line"/>
      <point x="412" y="520" type="line"/>
      <point x="146" y="520" type="line"/>
      <point x="113" y="364" type="line"/>
    </contour>
    <contour>
      <point x="106" y="-18"/>
      <point x="68" y="-64"/>
      <point x="16" y="-64" type="curve" smooth="yes"/>
      <point x="-17" y="-64"/>
      <point x="-40" y="-51"/>
      <point x="-50" y="-37" type="curve"/>
      <point x="-107" y="-168" type="line"/>
      <point x="-91" y="-191"/>
      <point x="-61" y="-210"/>
      <point x="-8" y="-210" type="curve" smooth="yes"/>
      <point x="87" y="-210"/>
      <point x="148" y="-122"/>
      <point x="193" y="82" type="curve"/>
      <point x="262" y="394" type="line"/>
      <point x="197" y="394" type="line"/>
      <point x="128" y="82" type="line"/>
    </contour>
  </outline>
</glyph>
<glyph name="dotlessj" format="1">
  <advance width="330"/>
  <unicode hex="0237"/>
  <outline>
    <contour>
      <point x="230" y="-67" type="curve" smooth="yes"/>
      <point x="230" y="540" type="line"/>
      <point x="40" y="540" type="line"/>
      <point x="40" y="368" type="line"/>
      <point x="165" y="368" type="line"/>
      <point x="165" y="11" type="line" smooth="yes"/>
      <point x="165" y="-58"/>
      <point x="137" y="-78"/>
      <point x="89" y="-80" type="curve" smooth="yes"/>
      <point x="65" y="-81"/>
      <point x="33" y="-73"/>
      <point x="10" y="-48" type="curve"/>
      <point x="-18" y="-148" type="line"/>
      <point x="1" y="-179"/>
      <point x="42" y="-210"/>
      <point x="108" y="-210" type="curve" smooth="yes"/>
      <point x="186" y="-210"/>
      <point x="230" y="-159"/>
    </contour>
  </outline>
</glyph>
<glyph name="schwa" format="1">
  <advance width="530"/>
  <unicode hex="0259"/>
  <unicode hex="01DD"/>
  <outline>
    <contour>
      <point x="436" y="281" type="curve"/>
      <point x="436" y="188"/>
      <point x="359" y="132"/>
      <point x="275" y="132" type="curve" smooth="yes"/>
      <point x="173" y="132"/>
      <point x="110" y="192"/>
      <point x="110" y="253" type="curve"/>
      <point x="468" y="253" type="line"/>
      <point x="468" y="318" type="line"/>
      <point x="45" y="318" type="line"/>
      <point x="45" y="90"/>
      <point x="134" y="-10"/>
      <point x="270" y="-10" type="curve" smooth="yes"/>
      <point x="390" y="-10"/>
      <point x="495" y="70"/>
      <point x="495" y="283" type="curve" smooth="yes"/>
      <point x="495" y="445"/>
      <point x="418" y="560"/>
      <point x="268" y="560" type="curve" smooth="yes"/>
      <point x="171" y="560"/>
      <point x="97" y="500"/>
      <point x="64" y="424" type="curve"/>
      <point x="111" y="389" type="line"/>
      <point x="140" y="429"/>
      <point x="182" y="450"/>
      <point x="270" y="449" type="curve" smooth="yes"/>
      <point x="374" y="448"/>
      <point x="436" y="394"/>
    </contour>
  </outline>
</glyph>
<glyph name="caron" format="1">
  <advance width="530"/>
  <unicode hex="02C7"/>
  <outline>
    <contour>
      <point x="454" y="800" type="line"/>
      <point x="382" y="805"/>
      <point x="292" y="786"/>
      <point x="272" y="746" type="curve"/>
      <point x="252" y="786"/>
      <point x="162" y="805"/>
      <point x="90" y="800" type="curve"/>
      <point x="90" y="766" type="line"/>
      <point x="158" y="754"/>
      <point x="230" y="685"/>
      <point x="262" y="625" type="curve"/>
      <point x="282" y="625" type="line"/>
      <point x="314" y="685"/>
      <point x="386" y="754"/>
      <point x="454" y="766" type="curve"/>
    </contour>
  </outline>
</glyph>
<glyph name="dotaccent" format="1">
  <advance width="530"/>
  <unicode hex="02D9"/>
  <outline>
    <contour>
      <point x="351" y="730" type="curve" smooth="yes"/>
      <point x="351" y="783"/>
      <point x="320" y="804"/>
      <point x="268" y="804" type="curve" smooth="yes"/>
      <point x="209" y="804"/>
      <point x="179" y="782"/>
      <point x="179" y="730" type="curve" smooth="yes"/>
      <point x="179" y="682"/>
      <point x="210" y="659"/>
      <point x="268" y="659" type="curve" smooth="yes"/>
      <point x="319" y="659"/>
      <point x="351" y="682"/>
    </contour>
  </outline>
</glyph>
<glyph name="ring" format="1">
  <advance width="530"/>
  <unicode hex="02DA"/>
  <outline>
    <contour>
      <point x="370" y="695" type="curve"/>
      <point x="369" y="772"/>
      <point x="320" y="804"/>
      <point x="264" y="804" type="curve" smooth="yes"/>
      <point x="203" y="804"/>
      <point x="161" y="772"/>
      <point x="160" y="695" type="curve"/>
      <point x="161" y="624"/>
      <point x="212" y="593"/>
      <point x="266" y="593" type="curve" smooth="yes"/>
      <point x="326" y="593"/>
      <point x="369" y="624"/>
    </contour>
    <contour>
      <point x="336" y="695" type="curve" smooth="yes"/>
      <point x="337" y="667"/>
      <point x="312" y="650"/>
      <point x="266" y="650" type="curve" smooth="yes"/>
      <point x="218" y="650"/>
      <point x="195" y="668"/>
      <point x="195" y="695" type="curve" smooth="yes"/>
      <point x="195" y="725"/>
      <point x="218" y="745"/>
      <point x="264" y="745" type="curve" smooth="yes"/>
      <point x="313" y="745"/>
      <point x="335" y="722"/>
    </contour>
  </outline>
</glyph>
<glyph name="tilde" format="1">
  <advance width="530"/>
  <unicode hex="02DC"/>
  <outline>
    <contour>
      <point x="267" y="786" type="curve" smooth="yes"/>
      <point x="184" y="808"/>
      <point x="114" y="756"/>
      <point x="87" y="679" type="curve"/>
      <point x="94" y="666" type="line"/>
      <point x="116" y="691"/>
      <point x="181" y="703"/>
      <point x="264" y="675" type="curve" smooth="yes"/>
      <point x="331" y="652"/>
      <point x="410" y="691"/>
      <point x="444" y="777" type="curve"/>
      <point x="437" y="790" type="line"/>
      <point x="418" y="769"/>
      <point x="344" y="766"/>
    </contour>
  </outline>
</glyph>
<glyph name="Delta" format="1">
  <advance width="730"/>
  <unicode hex="0394"/>
  <outline>
    <contour>
      <point x="125" y="0" type="line"/>
      <point x="637" y="0" type="line"/>
      <point x="637" y="126" type="line"/>
      <point x="125" y="126" type="line"/>
    </contour>
    <contour>
      <point x="421" y="730" type="line"/>
      <point x="298" y="730" type="line"/>
      <point x="42" y="0" type="line"/>
      <point x="162" y="0" type="line"/>
      <point x="408" y="626" type="line"/>
      <point x="375" y="626" type="line"/>
      <point x="614" y="0" type="line"/>
      <point x="688" y="0" type="line"/>
    </contour>
  </outline>
</glyph>
<glyph name="Omega" format="1">
  <advance width="730"/>
  <unicode hex="03A9"/>
  <outline>
    <contour>
      <point x="423" y="0" type="line"/>
      <point x="687" y="0" type="line"/>
      <point x="687" y="126" type="line"/>
      <point x="563" y="116" type="line"/>
      <point x="423" y="126" type="line"/>
    </contour>
    <contour>
      <point x="43" y="0" type="line"/>
      <point x="316" y="0" type="line"/>
      <point x="316" y="126" type="line"/>
      <point x="179" y="116" type="line"/>
      <point x="43" y="126" type="line"/>
    </contour>
    <contour>
      <point x="433" y="44" type="line"/>
      <point x="575" y="77"/>
      <point x="662" y="168"/>
      <point x="662" y="351" type="curve" smooth="yes"/>
      <point x="662" y="632"/>
      <point x="541" y="740"/>
      <point x="365" y="740" type="curve"/>
      <point x="189" y="740"/>
      <point x="68" y="632"/>
      <point x="68" y="351" type="curve" smooth="yes"/>
      <point x="68" y="164"/>
      <point x="160" y="73"/>
      <point x="306" y="43" type="curve"/>
      <point x="316" y="126" type="line"/>
      <point x="211" y="150"/>
      <point x="129" y="217"/>
      <point x="130" y="351" type="curve" smooth="yes"/>
      <point x="131" y="464"/>
      <point x="210" y="544"/>
      <point x="365" y="544" type="curve"/>
      <point x="519" y="544"/>
      <point x="600" y="464"/>
      <point x="601" y="351" type="curve" smooth="yes"/>
      <point x="602" y="220"/>
      <point x="525" y="152"/>
      <point x="423" y="126" type="curve"/>
    </contour>
  </outline>
</glyph>
<glyph name="pi" format="1">
  <advance width="530"/>
  <unicode hex="03C0"/>
  <outline>
    <contour>
      <point x="85" y="490" type="line"/>
      <point x="85" y="0" type="line"/>
      <point x="150" y="0" type="line"/>
      <point x="150" y="490" type="line"/>
    </contour>
    <contour>
      <point x="508" y="391" type="line"/>
      <point x="508" y="550" type="line"/>
      <point x="22" y="550" type="line"/>
      <point x="22" y="391" type="line"/>
    </contour>
    <contour>
      <point x="504" y="-10" type="curve"/>
      <point x="523" y="120" type="line"/>
      <point x="475" y="122"/>
      <point x="445" y="142"/>
      <point x="445" y="211" type="curve"/>
      <point x="445" y="487" type="line"/>
      <point x="382" y="487" type="line"/>
      <point x="382" y="133" type="line" smooth="yes"/>
      <point x="382" y="41"/>
      <point x="426" y="-10"/>
    </contour>
  </outline>
</glyph>
<glyph name="Germandbls" format="1">
  <advance width="680"/>
  <unicode hex="1E9E"/>
  <outline>
    <contour>
      <point x="403" y="351" type="line"/>
      <point x="533" y="501" type="line"/>
      <point x="533" y="649"/>
      <point x="454" y="730"/>
      <point x="327" y="730" type="curve"/>
      <point x="84" y="730" type="line"/>
      <point x="84" y="0" type="line"/>
      <point x="154" y="0" type="line"/>
      <point x="154" y="571" type="line" smooth="yes"/>
      <point x="364" y="571" type="line"/>
      <point x="431" y="571"/>
      <point x="466" y="539"/>
      <point x="465" y="500" type="curve"/>
      <point x="366" y="387" type="line"/>
    </contour>
    <contour>
      <point x="377" y="-10" type="curve" smooth="yes"/>
      <point x="516" y="-10"/>
      <point x="585" y="67"/>
      <point x="585" y="195" type="curve" smooth="yes"/>
      <point x="585" y="334"/>
      <point x="485" y="410"/>
      <point x="396" y="410" type="curve"/>
      <point x="212" y="410" type="line"/>
      <point x="212" y="324" type="line"/>
      <point x="387" y="324" type="line"/>
      <point x="481" y="324"/>
      <point x="523" y="280"/>
      <point x="522" y="224" type="curve" smooth="yes"/>
      <point x="521" y="154"/>
      <point x="471" y="115"/>
      <point x="367" y="115" type="curve"/>
      <point x="295" y="115"/>
      <point x="259" y="140"/>
      <point x="247" y="168" type="curve"/>
      <point x="192" y="158" type="line"/>
      <point x="196" y="60"/>
      <point x="275" y="-10"/>
    </contour>
  </outline>
</glyph>
<glyph name="dagger" format="1">
  <advance width="330"/>
  <unicode hex="2020"/>
  <outline>
    <contour>
      <point x="250" y="730" type="line"/>
      <point x="186" y="593" type="line"/>
      <point x="318" y="630" type="line"/>
      <point x="318" y="503" type="line"/>
      <point x="185" y="542" type="line"/>
      <point x="179" y="445"/>
      <point x="215" y="388"/>
      <point x="264" y="375" type="curve"/>
      <point x="207" y="340"/>
      <point x="185" y="285"/>
      <point x="185" y="0" type="curve"/>
      <point x="144" y="0" type="line"/>
      <point x="144" y="285"/>
      <point x="120" y="340"/>
      <point x="65" y="375" type="curve"/>
      <point x="114" y="388"/>
      <point x="149" y="445"/>
      <point x="144" y="542" type="curve"/>
      <point x="12" y="503" type="line"/>
      <point x="12" y="630" type="line"/>
      <point x="144" y="593" type="line"/>
      <point x="81" y="730" type="line"/>
    </contour>
  </outline>
</glyph>
<glyph name="daggerdbl" format="1">
  <advance width="330"/>
  <unicode hex="2021"/>
  <outline>
    <contour>
      <point x="250" y="730" type="line"/>
      <point x="186" y="593" type="line"/>
      <point x="318" y="630" type="line"/>
      <point x="318" y="503" type="line"/>
      <point x="185" y="542" type="line"/>
      <point x="179" y="445"/>
      <point x="215" y="378"/>
      <point x="264" y="365" type="curve"/>
      <point x="65" y="365" type="line"/>
      <point x="114" y="378"/>
      <point x="149" y="445"/>
      <point x="144" y="542" type="curve"/>
      <point x="12" y="503" type="line"/>
      <point x="12" y="630" type="line"/>
      <point x="144" y="593" type="line"/>
      <point x="81" y="730" type="line"/>
    </contour>
    <contour>
      <point x="250" y="0" type="line"/>
      <point x="81" y="0" type="line"/>
      <point x="144" y="137" type="line"/>
      <point x="12" y="100" type="line"/>
      <point x="12" y="227" type="line"/>
      <point x="144" y="188" type="line"/>
      <point x="149" y="285"/>
      <point x="114" y="352"/>
      <point x="65" y="365" type="curve"/>
      <point x="264" y="365" type="line"/>
      <point x="215" y="352"/>
      <point x="179" y="285"/>
      <point x="185" y="188" type="curve"/>
      <point x="318" y="227" type="line"/>
      <point x="318" y="100" type="line"/>
      <point x="186" y="137" type="line"/>
    </contour>
  </outline>
</glyph>
<glyph name="ellipsis" format="1">
  <advance width="830"/>
  <unicode hex="2026"/>
  <outline>
    <contour>
      <point x="240" y="66" type="curve" smooth="yes"/>
      <point x="240" y="119"/>
      <point x="213" y="140"/>
      <point x="168" y="140" type="curve" smooth="yes"/>
      <point x="116" y="140"/>
      <point x="90" y="118"/>
      <point x="90" y="66" type="curve" smooth="yes"/>
      <point x="90" y="18"/>
      <point x="117" y="-5"/>
      <point x="168" y="-5" type="curve" smooth="yes"/>
      <point x="212" y="-5"/>
      <point x="240" y="18"/>
    </contour>
    <contour>
      <point x="740" y="66" type="curve" smooth="yes"/>
      <point x="740" y="119"/>
      <point x="713" y="140"/>
      <point x="668" y="140" type="curve" smooth="yes"/>
      <point x="616" y="140"/>
      <point x="590" y="118"/>
      <point x="590" y="66" type="curve" smooth="yes"/>
      <point x="590" y="18"/>
      <point x="617" y="-5"/>
      <point x="668" y="-5" type="curve" smooth="yes"/>
      <point x="712" y="-5"/>
      <point x="740" y="18"/>
    </contour>
    <contour>
      <point x="490" y="66" type="curve" smooth="yes"/>
      <point x="490" y="119"/>
      <point x="463" y="140"/>
      <point x="418" y="140" type="curve" smooth="yes"/>
      <point x="366" y="140"/>
      <point x="340" y="118"/>
      <point x="340" y="66" type="curve" smooth="yes"/>
      <point x="340" y="18"/>
      <point x="367" y="-5"/>
      <point x="418" y="-5" type="curve" smooth="yes"/>
      <point x="462" y="-5"/>
      <point x="490" y="18"/>
    </contour>
  </outline>
</glyph>
<glyph name="euro" format="1">
  <advance width="730"/>
  <unicode hex="20AC"/>
  <outline>
    <contour>
      <point x="408" y="363" type="line"/>
      <point x="408" y="444" type="line"/>
      <point x="20" y="444" type="line"/>
      <point x="20" y="363" type="line"/>
    </contour>
    <contour>
      <point x="408" y="223" type="line"/>
      <point x="408" y="304" type="line"/>
      <point x="20" y="304" type="line"/>
      <point x="20" y="223" type="line"/>
    </contour>
    <contour>
      <point x="626" y="255" type="line"/>
      <point x="600" y="177"/>
      <point x="512" y="129"/>
      <point x="398" y="129" type="curve" smooth="yes"/>
      <point x="235" y="129"/>
      <point x="156" y="211"/>
      <point x="157" y="342" type="curve" smooth="yes"/>
      <point x="158" y="472"/>
      <point x="243" y="553"/>
      <point x="394" y="553" type="curve" smooth="yes"/>
      <point x="503" y="553"/>
      <point x="574" y="525"/>
      <point x="609" y="481" type="curve"/>
      <point x="677" y="538" type="line"/>
      <point x="638" y="692"/>
      <point x="536" y="739"/>
      <point x="394" y="740" type="curve" smooth="yes"/>
      <point x="220" y="741"/>
      <point x="95" y="631"/>
      <point x="95" y="354" type="curve" smooth="yes"/>
      <point x="95" y="108"/>
      <point x="212" y="-10"/>
      <point x="384" y="-10" type="curve" smooth="yes"/>
      <point x="552" y="-10"/>
      <point x="652" y="69"/>
      <point x="685" y="210" type="curve"/>
    </contour>
  </outline>
</glyph>
<glyph name="arrowright" format="1">
  <advance width="730"/>
  <unicode hex="2192"/>
  <outline>
    <contour>
      <point x="18" y="416" type="line"/>
      <point x="98" y="295" type="line"/>
      <point x="18" y="175" type="line"/>
      <point x="364" y="175" type="line"/>
      <point x="405" y="175"/>
      <point x="469" y="212"/>
      <point x="499" y="247" type="curve"/>
      <point x="499" y="78" type="line"/>
      <point x="712" y="295" type="line"/>
      <point x="499" y="513" type="line"/>
      <point x="499" y="344" type="line"/>
      <point x="466" y="379"/>
      <point x="405" y="416"/>
      <point x="355" y="416" type="curve"/>
    </contour>
  </outline>
</glyph>
<glyph name="notequal" format="1">
  <advance width="530"/>
  <unicode hex="2260"/>
  <outline>
    <contour>
      <point x="329" y="581" type="line"/>
      <point x="112" y="61" type="line"/>
      <point x="187" y="61" type="line"/>
      <point x="404" y="581" type="line"/>
    </contour>
    <component base="equal" xOffset="-10"/>
  </outline>
</glyph>
<glyph name="lessequal" format="1">
  <advance width="530"/>
  <unicode hex="2264"/>
  <outline>
    <contour>
      <point x="460" y="58" type="line"/>
      <point x="460" y="167" type="line"/>
      <point x="70" y="167" type="line"/>
      <point x="70" y="58" type="line"/>
    </contour>
    <contour>
      <point x="90" y="357" type="line"/>
      <point x="460" y="203" type="line"/>
      <point x="460" y="316" type="line"/>
      <point x="140" y="403" type="line"/>
      <point x="460" y="510" type="line"/>
      <point x="460" y="637" type="line"/>
      <point x="90" y="447" type="line"/>
    </contour>
  </outline>
</glyph>
<glyph name="greaterequal" format="1">
  <advance width="530"/>
  <unicode hex="2265"/>
  <outline>
    <contour>
      <point x="70" y="58" type="line"/>
      <point x="460" y="58" type="line"/>
      <point x="460" y="167" type="line"/>
      <point x="70" y="167" type="line"/>
    </contour>
    <contour>
      <point x="440" y="357" type="line"/>
      <point x="440" y="447" type="line"/>
      <point x="70" y="637" type="line"/>
      <point x="70" y="510" type="line"/>
      <point x="390" y="403" type="line"/>
      <point x="70" y="316" type="line"/>
      <point x="70" y="203" type="line"/>
    </contour>
  </outline>
</glyph>
<glyph name="pansements" format="1">
  <advance width="530"/>
  <unicode hex="2716"/>
  <outline>
    <contour>
      <point x="47" y="213" type="line" smooth="yes"/>
      <point x="35" y="201"/>
      <point x="37" y="181"/>
      <point x="48" y="170" type="curve" smooth="yes"/>
      <point x="140" y="77" type="line" smooth="yes"/>
      <point x="151" y="66"/>
      <point x="172" y="66"/>
      <point x="183" y="77" type="curve" smooth="yes"/>
      <point x="484" y="377" type="line" smooth="yes"/>
      <point x="496" y="389"/>
      <point x="494" y="409"/>
      <point x="483" y="420" type="curve" smooth="yes"/>
      <point x="391" y="513" type="line" smooth="yes"/>
      <point x="380" y="524"/>
      <point x="360" y="525"/>
      <point x="348" y="513" type="curve" smooth="yes"/>
    </contour>
    <contour>
      <point x="177" y="520" type="line" smooth="yes"/>
      <point x="167" y="530"/>
      <point x="146" y="532"/>
      <point x="134" y="520" type="curve" smooth="yes"/>
      <point x="40" y="427" type="line" smooth="yes"/>
      <point x="28" y="415"/>
      <point x="30" y="393"/>
      <point x="40" y="383" type="curve" smooth="yes"/>
      <point x="102" y="323" type="line"/>
      <point x="237" y="459" type="line"/>
    </contour>
    <contour>
      <point x="491" y="207" type="curve" smooth="yes"/>
      <point x="429" y="269" type="line"/>
      <point x="294" y="132" type="line"/>
      <point x="354" y="70" type="line" smooth="yes"/>
      <point x="363" y="60"/>
      <point x="385" y="58"/>
      <point x="397" y="70" type="curve" smooth="yes"/>
      <point x="491" y="164" type="line" smooth="yes"/>
      <point x="502" y="175"/>
      <point x="501" y="197"/>
    </contour>
    <contour>
      <point x="274" y="404" type="line"/>
      <point x="288" y="419"/>
      <point x="308.0" y="419.0"/>
      <point x="322" y="405" type="curve" smooth="yes"/>
      <point x="377" y="350" type="line" smooth="yes"/>
      <point x="391.0" y="336.0"/>
      <point x="390" y="318"/>
      <point x="376" y="305" type="curve"/>
    </contour>
    <contour>
      <point x="257" y="186" type="line"/>
      <point x="243" y="171"/>
      <point x="223.0" y="171.0"/>
      <point x="209" y="185" type="curve" smooth="yes"/>
      <point x="155" y="239" type="line" smooth="yes"/>
      <point x="141.0" y="253.0"/>
      <point x="141" y="273"/>
      <point x="156" y="287" type="curve"/>
    </contour>
  </outline>
</glyph>
<glyph name="boum" format="1">
  <advance width="630"/>
  <unicode hex="2734"/>
  <outline>
    <contour>
      <point x="315" y="584" type="line"/>
      <point x="370" y="423" type="line"/>
      <point x="530" y="499" type="line"/>
      <point x="454" y="343" type="line"/>
      <point x="612" y="287" type="line"/>
      <point x="454" y="232" type="line"/>
      <point x="530" y="75" type="line"/>
      <point x="370" y="151" type="line"/>
      <point x="315" y="-10" type="line"/>
      <point x="261" y="151" type="line"/>
      <point x="102" y="75" type="line"/>
      <point x="178" y="232" type="line"/>
      <point x="18" y="287" type="line"/>
      <point x="178" y="343" type="line"/>
      <point x="102" y="499" type="line"/>
      <point x="261" y="423" type="line"/>
    </contour>
    <contour>
      <point x="315" y="415" type="line"/>
      <point x="283" y="365" type="line"/>
      <point x="227" y="377" type="line"/>
      <point x="237" y="320" type="line"/>
      <point x="188" y="287" type="line"/>
      <point x="237" y="259" type="line"/>
      <point x="227" y="199" type="line"/>
      <point x="283" y="211" type="line"/>
      <point x="315" y="159" type="line"/>
      <point x="345" y="211" type="line"/>
      <point x="405" y="199" type="line"/>
      <point x="391" y="259" type="line"/>
      <point x="445" y="287" type="line"/>
      <point x="391" y="320" type="line"/>
      <point x="405" y="377" type="line"/>
      <point x="345" y="365" type="line"/>
    </contour>
  </outline>
</glyph>
<glyph name=".notdef" format="1">
  <advance width="580"/>
  <outline>
    <contour>
      <point x="315" y="331" type="curve" smooth="yes"/>
      <point x="378" y="338"/>
      <point x="416" y="376"/>
      <point x="416" y="450" type="curve" smooth="yes"/>
      <point x="416" y="531"/>
      <point x="367" y="577"/>
      <point x="289" y="577" type="curve" smooth="yes"/>
      <point x="215" y="577"/>
      <point x="173" y="545"/>
      <point x="158" y="482" type="curve"/>
      <point x="197" y="445" type="line"/>
      <point x="211" y="471"/>
      <point x="243" y="485"/>
      <point x="289" y="485" type="curve" smooth="yes"/>
      <point x="356" y="485"/>
      <point x="375" y="467"/>
      <point x="375" y="447" type="curve" smooth="yes"/>
      <point x="375" y="428"/>
      <point x="361" y="415"/>
      <point x="311" y="410" type="curve" smooth="yes"/>
      <point x="249" y="402"/>
      <point x="213" y="379"/>
      <point x="213" y="311" type="curve" smooth="yes"/>
      <point x="213" y="292"/>
      <point x="223" y="271"/>
      <point x="236" y="253" type="curve"/>
      <point x="275" y="258" type="line"/>
      <point x="265" y="269"/>
      <point x="262" y="287"/>
      <point x="262" y="296" type="curve" smooth="yes"/>
      <point x="262" y="322"/>
      <point x="300" y="329"/>
    </contour>
    <contour>
      <point x="314" y="185" type="curve" smooth="yes"/>
      <point x="314" y="213"/>
      <point x="299" y="226"/>
      <point x="276" y="226" type="curve" smooth="yes"/>
      <point x="245" y="226"/>
      <point x="232" y="213"/>
      <point x="232" y="185" type="curve" smooth="yes"/>
      <point x="232" y="162"/>
      <point x="245" y="151"/>
      <point x="276" y="151" type="curve" smooth="yes"/>
      <point x="299" y="151"/>
      <point x="314" y="162"/>
    </contour>
    <contour>
      <point x="545" y="0" type="line"/>
      <point x="545" y="730" type="line"/>
      <point x="35" y="730" type="line"/>
      <point x="35" y="0" type="line"/>
    </contour>
    <contour>
      <point x="484" y="605" type="line"/>
      <point x="484" y="126" type="line"/>
      <point x="96" y="126" type="line"/>
      <point x="96" y="605" type="line"/>
    </contour>
  </outline>
</glyph>
<glyph name="four.osf" format="1">
  <advance width="630"/>
  <outline>
    <contour>
      <point x="572" y="1" type="line"/>
      <point x="572" y="78" type="line"/>
      <point x="77" y="78" type="line"/>
      <point x="77" y="1" type="line"/>
    </contour>
    <contour>
      <point x="495" y="-200" type="line"/>
      <point x="495" y="550" type="line"/>
      <point x="424" y="550" type="line"/>
      <point x="424" y="-200" type="line"/>
    </contour>
    <contour>
      <point x="325" y="550" type="line"/>
      <point x="77" y="78" type="line"/>
      <point x="214" y="78" type="line"/>
      <point x="426" y="439" type="line"/>
      <point x="465" y="439" type="line"/>
      <point x="465" y="550" type="line"/>
    </contour>
  </outline>
</glyph>
<glyph name="one.osf" format="1">
  <advance width="330"/>
  <outline>
    <contour>
      <point x="50" y="292" type="line"/>
      <point x="103" y="292"/>
      <point x="167" y="326"/>
      <point x="190" y="367" type="curve"/>
      <point x="190" y="0" type="line"/>
      <point x="255" y="0" type="line"/>
      <point x="255" y="550" type="line"/>
      <point x="162" y="550" type="line"/>
      <point x="152" y="497"/>
      <point x="93" y="453"/>
      <point x="50" y="453" type="curve"/>
    </contour>
  </outline>
</glyph>
<glyph name="seven.osf" format="1">
  <advance width="530"/>
  <outline>
    <contour>
      <point x="218" y="-200" type="line"/>
      <point x="218" y="-1"/>
      <point x="341" y="228"/>
      <point x="493" y="404" type="curve"/>
      <point x="493" y="550" type="line"/>
      <point x="54" y="550" type="line"/>
      <point x="54" y="370" type="line"/>
      <point x="379" y="370" type="line"/>
      <point x="280" y="273"/>
      <point x="142" y="-16"/>
      <point x="142" y="-200" type="curve"/>
    </contour>
  </outline>
</glyph>
<glyph name="three.osf" format="1">
  <advance width="630"/>
  <outline>
    <contour>
      <point x="309" y="-210" type="curve" smooth="yes"/>
      <point x="462" y="-210"/>
      <point x="560" y="-130"/>
      <point x="560" y="41" type="curve" smooth="yes"/>
      <point x="560" y="178"/>
      <point x="492" y="254"/>
      <point x="358" y="264" type="curve"/>
      <point x="542" y="500" type="line"/>
      <point x="540" y="550" type="line"/>
      <point x="118" y="550" type="line"/>
      <point x="118" y="385" type="line"/>
      <point x="416" y="385" type="line"/>
      <point x="386" y="399" type="line"/>
      <point x="174" y="137" type="line" smooth="yes"/>
      <point x="250" y="145" type="line" smooth="yes"/>
      <point x="431" y="164"/>
      <point x="497" y="105"/>
      <point x="499" y="44" type="curve" smooth="yes"/>
      <point x="501" y="-25"/>
      <point x="440" y="-73"/>
      <point x="321" y="-73" type="curve" smooth="yes"/>
      <point x="254" y="-73"/>
      <point x="172" y="-53"/>
      <point x="134" y="-15" type="curve"/>
      <point x="85" y="-107" type="line"/>
      <point x="134" y="-173"/>
      <point x="220" y="-210"/>
    </contour>
  </outline>
</glyph>
<glyph name="two.osf" format="1">
  <advance width="530"/>
  <outline>
    <contour>
      <point x="482" y="0" type="line"/>
      <point x="482" y="129" type="line"/>
      <point x="272" y="129" type="line"/>
      <point x="356" y="200"/>
      <point x="445" y="284"/>
      <point x="445" y="397" type="curve" smooth="yes"/>
      <point x="445" y="504"/>
      <point x="388" y="560"/>
      <point x="261" y="560" type="curve" smooth="yes"/>
      <point x="167" y="560"/>
      <point x="107" y="527"/>
      <point x="80" y="476" type="curve"/>
      <point x="100" y="368" type="line"/>
      <point x="121" y="395"/>
      <point x="161" y="428"/>
      <point x="240" y="428" type="curve" smooth="yes"/>
      <point x="336" y="428"/>
      <point x="367" y="398"/>
      <point x="367" y="344" type="curve" smooth="yes"/>
      <point x="367" y="276"/>
      <point x="244" y="174"/>
      <point x="48" y="0" type="curve"/>
    </contour>
  </outline>
</glyph>
<glyph name="zero.osf" format="1">
  <advance width="530"/>
  <outline>
    <contour>
      <point x="268" y="106" type="curve" smooth="yes"/>
      <point x="166" y="106"/>
      <point x="98" y="151"/>
      <point x="99" y="266" type="curve" smooth="yes"/>
      <point x="100" y="348"/>
      <point x="145" y="402"/>
      <point x="268" y="402" type="curve" smooth="yes"/>
      <point x="386" y="402"/>
      <point x="430" y="350"/>
      <point x="431" y="266" type="curve" smooth="yes"/>
      <point x="432" y="134"/>
      <point x="364" y="106"/>
    </contour>
    <contour>
      <point x="268" y="-10" type="curve" smooth="yes"/>
      <point x="406" y="-10"/>
      <point x="490" y="74"/>
      <point x="490" y="266" type="curve" smooth="yes"/>
      <point x="490" y="479"/>
      <point x="404" y="560"/>
      <point x="268" y="560" type="curve" smooth="yes"/>
      <point x="133" y="560"/>
      <point x="40" y="476"/>
      <point x="40" y="264" type="curve" smooth="yes"/>
      <point x="40" y="71"/>
      <point x="141" y="-10"/>
    </contour>
  </outline>
</glyph>
